<?xml version="1.0" encoding="iso-8859-1"?>
<!-- Generator: Adobe Illustrator 16.0.0, SVG Export Plug-In . SVG Version: 6.00 Build 0)  -->
<!DOCTYPE svg PUBLIC "-//W3C//DTD SVG 1.1//EN" "http://www.w3.org/Graphics/SVG/1.1/DTD/svg11.dtd">
<svg version="1.1" id="Capa_1" xmlns="http://www.w3.org/2000/svg" xmlns:xlink="http://www.w3.org/1999/xlink" x="0px" y="0px"
	 width="63.861px" height="63.861px" viewBox="0 0 63.861 63.861" style="enable-background:new 0 0 63.861 63.861;"
	 xml:space="preserve">
<g>
	<path d="M11.193,27.945c0.607,0.353,1.035,0.72,1.277,1.077c0.311,0.449,0.401,0.956,0.288,1.516
		c-0.143,0.67-0.47,1.147-0.981,1.43c-0.421,0.234-0.914,0.317-1.484,0.25L11.193,27.945z M10.888,24.51l0.794-3.773
		c-0.465-0.038-0.88,0.04-1.217,0.225c-0.477,0.25-0.78,0.682-0.914,1.298c-0.11,0.515,0.033,0.996,0.42,1.456
		C10.184,23.965,10.49,24.234,10.888,24.51z M15.096,8.693l7.061,7.475l-5.597,25.488L0,37.842L5.595,12.35L15.096,8.693z
		 M13.153,18.658l0.316-1.509l-0.996-0.219l-0.315,1.539c-1.312-0.208-2.422-0.042-3.366,0.492
		c-1.082,0.623-1.767,1.627-2.063,3.022c-0.238,1.142-0.054,2.144,0.551,2.999c0.554,0.789,1.556,1.6,2.986,2.432l-0.967,4.578
		c-0.544-0.215-0.936-0.526-1.182-0.934c-0.302-0.535-0.33-1.269-0.086-2.191l-2.953-0.654l-0.091,0.383
		c-0.311,1.482-0.132,2.704,0.535,3.676c0.671,0.97,1.756,1.67,3.273,2.104L8.35,36.491l0.991,0.22l0.446-2.131
		c1.439,0.256,2.697,0.096,3.747-0.483c1.15-0.635,1.871-1.671,2.177-3.113c0.264-1.23,0.117-2.286-0.443-3.157
		c-0.557-0.874-1.633-1.745-3.218-2.614L11.8,25.07l0.871-4.137c0.593,0.183,0.996,0.441,1.217,0.782
		c0.271,0.428,0.325,1.04,0.151,1.848l2.777,0.617c0.302-1.439,0.106-2.647-0.614-3.628C15.568,19.672,14.545,19.042,13.153,18.658z
		 M32.667,22.933h-1.135l3.707-10.483h1.269h1.272l3.71,10.483h-1.164h-1.158L38.455,20.8h-3.974l-0.689,2.133H32.667z
		 M35.087,18.995h2.783l-1.392-4.211v-0.002h-0.005l0.005,0.002L35.087,18.995z M57.333,26.189H53.61v2.336h3.723V26.189z
		 M49.892,26.189h-3.719v2.336h3.719V26.189z M38.733,28.525h3.718v-2.336h-3.718V28.525z M35.013,26.189h-3.718v2.336h3.718V26.189
		z M57.333,33.024H53.61v2.336h3.723V33.024z M49.892,33.024h-3.719v2.336h3.719V33.024z M57.333,13.536H53.61v2.336h3.723V13.536z
		 M49.892,13.536h-3.719v2.336h3.719V13.536z M57.333,20.373H53.61v2.335h3.723V20.373z M49.892,20.373h-3.719v2.335h3.719V20.373z
		 M38.733,35.36h3.718v-2.336h-3.718V35.36z M35.013,33.024h-3.718v2.336h3.718V33.024z M57.333,39.86H53.61v2.336h3.723V39.86z
		 M49.892,39.86h-3.719v2.336h3.719V39.86z M38.733,42.196h3.718V39.86h-3.718V42.196z M35.013,39.86h-3.718v2.336h3.718V39.86z
		 M57.333,46.697H53.61v2.336h3.723V46.697z M49.892,46.697h-3.719v2.336h3.719V46.697z M38.733,49.033h3.718v-2.336h-3.718V49.033z
		 M35.013,46.697h-3.718v2.336h3.718V46.697z M63.861,2.308v59.246h-40.36V2.308H63.861z M60.357,8.136H27.005v45.156h33.352V8.136z
		 M45.63,59.802V58.05v-2.145h-3.9v2.145v1.752H45.63z"/>
</g>
<g>
</g>
<g>
</g>
<g>
</g>
<g>
</g>
<g>
</g>
<g>
</g>
<g>
</g>
<g>
</g>
<g>
</g>
<g>
</g>
<g>
</g>
<g>
</g>
<g>
</g>
<g>
</g>
<g>
</g>
</svg>
